<?xml version="1.0" standalone="no"?>
<!DOCTYPE svg PUBLIC "-//W3C//DTD SVG 20010904//EN"
 "http://www.w3.org/TR/2001/REC-SVG-20010904/DTD/svg10.dtd">
<svg version="1.0" xmlns="http://www.w3.org/2000/svg"
 width="570.000000pt" height="593.000000pt" viewBox="0 0 570.000000 593.000000"
 preserveAspectRatio="xMidYMid meet">
<metadata>
Created by potrace 1.16, written by Peter Selinger 2001-2019
</metadata>
<g transform="translate(0.000000,593.000000) scale(0.100000,-0.100000)"
fill="#000000" stroke="none">
<path d="M2280 4054 c-58 -11 -115 -30 -180 -61 -80 -38 -109 -59 -181 -132
-132 -132 -189 -264 -189 -437 0 -81 3 -97 20 -114 11 -11 27 -20 35 -20 8 0
24 9 35 20 17 17 20 33 20 108 0 148 46 258 155 368 84 85 179 135 303 160 76
15 88 15 163 -1 139 -28 215 -64 307 -147 71 -65 92 -64 174 7 95 83 200 129
343 150 58 9 187 -20 274 -61 54 -25 92 -53 146 -107 87 -88 130 -169 151
-288 16 -90 14 -134 -13 -242 -33 -131 -73 -143 -458 -140 l-270 3 -22 27
c-13 16 -23 32 -23 36 0 5 -20 51 -45 103 -50 107 -76 129 -119 100 -19 -12
-32 -40 -56 -118 -17 -57 -42 -137 -54 -178 -13 -41 -34 -111 -47 -155 -12
-44 -26 -84 -29 -88 -4 -4 -29 43 -55 105 -66 155 -99 220 -124 242 -20 18
-44 20 -464 22 -243 2 -452 4 -463 4 -20 0 -22 6 -26 94 -3 67 -9 101 -21 120
-57 86 -185 88 -249 4 -24 -31 -33 -36 -82 -40 -70 -6 -103 -28 -130 -89 -17
-39 -26 -49 -46 -49 -14 0 -48 -11 -76 -24 -77 -36 -84 -58 -84 -264 0 -94 5
-183 11 -200 14 -41 75 -82 121 -82 50 0 66 -8 84 -41 21 -41 81 -69 148 -69
30 0 58 -5 61 -10 16 -26 89 -52 132 -47 58 6 91 30 114 82 18 40 19 67 19
266 -1 121 0 223 3 225 2 2 200 5 441 5 362 2 440 -1 451 -12 14 -15 79 -163
140 -319 51 -130 58 -140 100 -140 42 0 53 18 90 144 13 47 36 123 49 169 39
132 78 247 85 247 3 0 22 -32 41 -71 19 -39 44 -78 56 -86 49 -32 504 -40 674
-13 79 14 157 54 186 98 43 63 64 160 64 289 0 138 -12 190 -73 307 -58 112
-155 208 -273 268 -141 72 -275 93 -433 67 -78 -13 -229 -82 -290 -133 -24
-20 -47 -36 -51 -36 -4 0 -28 16 -52 37 -59 50 -189 110 -273 127 -117 23
-156 25 -245 10z m-816 -680 c14 -13 16 -60 16 -360 0 -219 -4 -352 -10 -365
-12 -22 -43 -25 -59 -5 -8 9 -12 117 -12 367 0 326 1 354 17 366 23 17 29 16
48 -3z m-190 -106 c14 -19 16 -63 16 -278 0 -215 -2 -259 -16 -278 -18 -26
-37 -28 -58 -6 -14 13 -16 53 -16 280 0 164 4 273 10 285 14 26 45 24 64 -3z
m-193 -163 c9 -39 9 -231 0 -270 -5 -23 -12 -31 -34 -33 -41 -5 -49 29 -45
186 3 140 8 155 53 150 13 -2 22 -13 26 -33z"/>
<path d="M4194 3526 c-17 -8 -42 -29 -55 -47 -24 -33 -24 -39 -27 -281 l-3
-247 -32 -6 c-18 -3 -99 -4 -182 -3 -192 4 -201 0 -355 -153 -177 -176 -370
-335 -594 -486 -43 -29 -86 -53 -95 -53 -28 0 -272 173 -456 324 -118 97 -244
217 -323 306 -122 139 -133 150 -150 150 -29 0 -45 -17 -45 -48 0 -78 335
-417 623 -629 199 -147 319 -223 351 -223 22 0 63 21 137 72 240 161 469 347
654 532 l106 106 179 -2 178 -3 6 -86 c7 -100 30 -147 83 -173 60 -28 138 -14
179 31 14 16 26 19 66 15 59 -5 97 13 140 66 26 33 36 39 69 39 44 0 87 20
122 58 24 26 25 32 28 182 2 86 1 176 -3 200 -9 59 -54 110 -103 118 -20 4
-46 8 -57 10 -12 3 -29 23 -43 54 -27 60 -76 94 -141 97 -37 2 -51 9 -73 33
-52 58 -118 75 -184 47z m95 -110 c8 -10 12 -114 13 -366 1 -302 -1 -354 -15
-367 -17 -17 -52 -10 -61 13 -11 29 -8 692 4 713 12 24 42 27 59 7z m201 -105
c6 -12 10 -121 10 -285 0 -227 -2 -267 -16 -280 -21 -22 -40 -20 -58 6 -14 19
-16 63 -16 281 0 159 4 266 10 278 6 11 21 19 35 19 14 0 29 -8 35 -19z m188
-143 c8 -8 12 -58 12 -158 0 -132 -2 -149 -19 -164 -18 -17 -20 -17 -40 3 -19
19 -21 33 -21 150 0 71 4 141 10 155 10 28 38 34 58 14z"/>
</g>
</svg>
