<?xml version="1.0" standalone="no"?>
<!DOCTYPE svg PUBLIC "-//W3C//DTD SVG 20010904//EN"
 "http://www.w3.org/TR/2001/REC-SVG-20010904/DTD/svg10.dtd">
<svg version="1.0" xmlns="http://www.w3.org/2000/svg"
 width="512.000000pt" height="512.000000pt" viewBox="0 0 512.000000 512.000000"
 preserveAspectRatio="xMidYMid meet">
<metadata>
Created by potrace 1.16, written by Peter Selinger 2001-2019
</metadata>
<g transform="translate(0.000000,512.000000) scale(0.100000,-0.100000)"
fill="#000000" stroke="none">
<path d="M2450 5092 c0 -27 -2 -28 -78 -39 -250 -37 -531 -183 -726 -379 -194
-193 -336 -463 -379 -722 l-13 -77 -340 -5 c-334 -5 -340 -5 -377 -28 -20 -13
-48 -43 -62 -66 l-25 -43 0 -1774 0 -1775 28 -45 c16 -24 45 -53 65 -64 29
-15 37 -26 37 -47 l0 -28 1180 0 1180 0 0 28 c1 21 10 33 43 53 27 16 51 42
67 72 l25 47 -25 47 c-16 29 -41 57 -69 75 l-45 28 -1093 0 -1093 0 0 1610 0
1610 250 0 250 0 0 -333 0 -333 28 -45 c18 -28 46 -53 75 -69 l47 -25 47 25
c29 16 57 41 75 69 l28 45 0 333 0 333 1010 0 1010 0 0 -333 0 -333 28 -45
c18 -28 46 -53 75 -69 l47 -25 47 25 c29 16 57 41 75 69 l28 45 0 333 0 333
250 0 250 0 0 -893 0 -893 28 -45 c18 -28 46 -53 75 -69 l47 -25 47 25 c29 16
57 41 75 69 l28 45 0 975 0 974 -25 43 c-14 23 -42 53 -62 66 -37 23 -43 23
-377 28 l-340 5 -13 77 c-27 163 -111 371 -206 513 -200 297 -511 509 -851
580 -42 8 -87 15 -101 15 -21 0 -25 5 -25 30 l0 30 -110 0 -110 0 0 -28z m390
-358 c266 -67 484 -240 615 -487 54 -101 95 -239 95 -318 l0 -59 -990 0 -990
0 0 59 c0 79 41 217 95 318 154 290 436 481 755 513 130 13 310 2 420 -26z"/>
<path d="M4063 1124 c-24 -14 -54 -44 -68 -68 -23 -40 -25 -52 -25 -174 l0
-132 -133 0 c-129 0 -134 -1 -178 -28 -28 -18 -53 -46 -69 -75 l-25 -47 25
-47 c16 -29 41 -57 69 -75 44 -27 49 -28 178 -28 l133 0 0 -133 c0 -129 1
-135 28 -178 16 -24 45 -53 65 -64 29 -15 37 -26 37 -47 0 -21 5 -28 20 -28
15 0 20 7 20 28 0 21 8 32 37 47 20 11 49 40 65 64 27 43 28 49 28 178 l0 133
133 0 c129 0 134 1 178 28 28 18 53 46 69 75 l25 47 -25 47 c-16 29 -41 57
-69 75 -44 27 -49 28 -178 28 l-133 0 0 132 c0 122 -2 134 -25 174 -25 42 -95
94 -126 94 -8 0 -33 -12 -56 -26z"/>
</g>
</svg>
