<?xml version="1.0" standalone="no"?>
<!DOCTYPE svg PUBLIC "-//W3C//DTD SVG 20010904//EN"
 "http://www.w3.org/TR/2001/REC-SVG-20010904/DTD/svg10.dtd">
<svg version="1.0" xmlns="http://www.w3.org/2000/svg"
 width="512.000000pt" height="512.000000pt" viewBox="0 0 512.000000 512.000000"
 preserveAspectRatio="xMidYMid meet">
<metadata>
Created by potrace 1.16, written by Peter Selinger 2001-2019
</metadata>
<g transform="translate(0.000000,512.000000) scale(0.100000,-0.100000)"
fill="#000000" stroke="none">
<path d="M2410 4895 c-355 -80 -628 -336 -731 -686 -17 -59 -23 -109 -26 -246
l-5 -173 -113 0 c-134 0 -211 -20 -301 -78 -118 -76 -198 -189 -229 -322 -11
-48 -32 -420 -79 -1385 -70 -1463 -69 -1383 -5 -1514 60 -122 195 -230 334
-267 41 -11 289 -14 1308 -14 l1258 0 76 25 c137 46 243 137 303 260 63 127
63 51 -6 1510 -47 964 -68 1338 -79 1385 -24 102 -61 168 -139 246 -115 116
-212 154 -392 154 l-112 0 -5 173 c-3 137 -9 187 -26 246 -97 328 -346 578
-672 671 -97 28 -269 35 -359 15z m259 -215 c203 -23 362 -121 475 -291 76
-116 105 -249 106 -486 l0 -113 -690 0 -690 0 0 113 c1 293 46 437 183 584
146 156 359 223 616 193z m-719 -1332 c57 -40 71 -79 68 -190 -3 -107 -16
-136 -75 -171 -40 -23 -146 -33 -201 -18 -58 16 -109 63 -123 114 -17 62 -7
182 18 215 43 59 77 72 183 72 84 0 101 -3 130 -22z m1480 0 c52 -36 71 -69
77 -135 17 -182 -64 -266 -238 -250 -69 6 -115 30 -146 77 -20 28 -23 46 -23
124 0 106 16 148 69 183 29 20 47 23 131 23 84 0 101 -3 130 -22z"/>
</g>
</svg>
