<?xml version="1.0" standalone="no"?>
<!DOCTYPE svg PUBLIC "-//W3C//DTD SVG 20010904//EN"
 "http://www.w3.org/TR/2001/REC-SVG-20010904/DTD/svg10.dtd">
<svg version="1.0" xmlns="http://www.w3.org/2000/svg"
 width="512.000000pt" height="512.000000pt" viewBox="0 0 512.000000 512.000000"
 preserveAspectRatio="xMidYMid meet">
<metadata>
Created by potrace 1.16, written by Peter Selinger 2001-2019
</metadata>
<g transform="translate(0.000000,512.000000) scale(0.100000,-0.100000)"
fill="#000000" stroke="none">
<path d="M2380 5091 c0 -28 -1 -28 -77 -35 -290 -26 -649 -142 -937 -303 -221
-123 -381 -245 -576 -442 -203 -205 -341 -393 -464 -634 -138 -270 -238 -599
-262 -859 -7 -77 -7 -78 -35 -78 l-29 0 0 -180 0 -180 30 0 c27 0 30 -3 30
-31 0 -61 32 -246 65 -374 230 -898 943 -1616 1833 -1846 122 -31 335 -69 390
-69 29 0 32 -3 32 -30 l0 -30 180 0 180 0 0 28 0 28 109 13 c838 97 1622 673
1985 1455 114 246 201 551 222 779 7 76 7 77 35 77 l29 0 0 180 0 180 -30 0
c-27 0 -30 3 -30 33 0 57 -29 226 -61 356 -205 837 -844 1531 -1665 1810 -153
52 -348 97 -486 113 l-108 12 0 28 0 28 -180 0 -180 0 0 -29z m-436 -871 c86
-44 123 -93 299 -398 191 -333 203 -363 194 -509 -9 -149 -54 -229 -179 -314
-64 -44 -108 -101 -108 -139 0 -54 105 -185 315 -395 210 -210 341 -315 395
-315 38 0 95 44 139 108 85 125 165 170 314 179 146 9 175 -2 509 -194 305
-176 354 -213 398 -299 22 -44 25 -64 28 -181 l4 -133 -67 -167 c-139 -349
-200 -432 -384 -523 -111 -55 -193 -70 -385 -70 -266 0 -427 42 -716 186 -322
161 -622 385 -941 703 -480 481 -800 999 -875 1420 -16 92 -18 364 -3 447 24
130 107 286 195 363 59 52 169 108 377 192 l172 70 135 -3 c121 -3 140 -6 184
-28z"/>
<path d="M1580 3819 c-183 -77 -229 -105 -276 -166 -127 -167 -95 -414 101
-791 385 -738 1267 -1493 1895 -1622 93 -19 113 -20 173 -10 87 15 175 60 222
112 39 43 64 93 145 289 l49 119 -37 24 c-27 17 -429 251 -503 292 -3 2 -23
-21 -43 -50 -48 -70 -130 -148 -187 -176 -73 -38 -137 -50 -267 -50 -211 0
-273 32 -549 282 -66 60 -171 165 -231 231 -250 276 -282 338 -282 549 0 185
28 266 128 370 30 32 77 72 103 89 39 25 47 34 40 47 -44 82 -295 510 -304
519 -9 8 -52 -5 -177 -58z"/>
</g>
</svg>
