<?xml version="1.0" standalone="no"?>
<!DOCTYPE svg PUBLIC "-//W3C//DTD SVG 20010904//EN"
 "http://www.w3.org/TR/2001/REC-SVG-20010904/DTD/svg10.dtd">
<svg version="1.0" xmlns="http://www.w3.org/2000/svg"
 width="512.000000pt" height="512.000000pt" viewBox="0 0 512.000000 512.000000"
 preserveAspectRatio="xMidYMid meet">
<metadata>
Created by potrace 1.16, written by Peter Selinger 2001-2019
</metadata>
<g transform="translate(0.000000,512.000000) scale(0.100000,-0.100000)"
fill="#000000" stroke="none">
<path d="M1315 4813 c-560 -70 -986 -443 -1174 -1025 -34 -105 -81 -327 -81
-382 0 -33 -2 -36 -30 -36 l-30 0 0 -160 0 -160 30 0 c27 0 30 -3 30 -34 0
-103 69 -398 136 -584 150 -412 371 -749 729 -1108 259 -259 482 -432 810
-630 263 -157 751 -386 825 -386 37 0 173 55 392 160 340 161 679 374 958 601
127 103 363 332 470 456 281 326 495 714 605 1100 31 108 75 341 75 396 0 37
2 39 30 39 l30 0 0 150 0 150 -30 0 c-27 0 -30 3 -30 33 0 18 -5 60 -10 93
-91 524 -354 931 -745 1152 -218 123 -492 184 -717 161 -216 -22 -416 -82
-643 -194 -82 -40 -190 -98 -239 -129 -81 -52 -93 -56 -147 -56 -55 0 -64 4
-156 64 -359 235 -794 366 -1088 329z m435 -158 c230 -51 481 -170 740 -349
l71 -49 87 60 c185 127 349 209 538 272 204 68 260 76 514 75 211 0 231 -2
323 -27 112 -30 256 -95 347 -157 256 -174 456 -494 529 -849 69 -333 48 -751
-55 -1084 l-27 -87 -287 0 c-253 0 -290 -2 -320 -18 -19 -9 -188 -133 -376
-275 -340 -256 -341 -257 -390 -257 l-50 0 -178 503 c-140 395 -184 508 -206
531 -54 55 -58 48 -260 -461 -99 -252 -224 -567 -277 -701 l-96 -242 -51 0
-51 0 -270 903 c-231 771 -274 906 -297 930 -26 26 -29 27 -51 12 -16 -10
-103 -169 -256 -470 l-233 -455 -433 0 -434 0 -20 68 c-65 220 -89 373 -97
607 -17 482 103 881 354 1172 150 174 382 310 602 352 30 6 64 13 75 15 11 3
119 3 240 1 159 -2 241 -7 295 -20z m-37 -1632 c557 -1867 555 -1861 604
-1851 9 2 24 14 34 28 10 14 142 338 293 720 l275 695 53 3 53 3 154 -435
c160 -452 180 -494 219 -469 9 6 194 144 411 307 l393 296 254 0 254 0 0 -55
c0 -45 -8 -71 -40 -134 -334 -665 -1024 -1253 -1928 -1642 -100 -43 -122 -49
-184 -49 -64 0 -83 5 -212 61 -713 309 -1271 724 -1645 1224 -179 239 -301
460 -301 544 l0 50 394 3 395 3 28 27 c15 15 106 181 203 373 l175 345 52 0
52 0 14 -47z"/>
</g>
</svg>
