<?xml version="1.0" standalone="no"?>
<!DOCTYPE svg PUBLIC "-//W3C//DTD SVG 20010904//EN"
 "http://www.w3.org/TR/2001/REC-SVG-20010904/DTD/svg10.dtd">
<svg version="1.0" xmlns="http://www.w3.org/2000/svg"
 width="512.000000pt" height="512.000000pt" viewBox="0 0 512.000000 512.000000"
 preserveAspectRatio="xMidYMid meet">
<metadata>
Created by potrace 1.16, written by Peter Selinger 2001-2019
</metadata>
<g transform="translate(0.000000,512.000000) scale(0.100000,-0.100000)"
fill="#000000" stroke="none">
<path d="M877 3766 c-107 -29 -180 -113 -198 -227 -6 -40 -9 -423 -7 -1029 l3
-965 28 -57 c31 -64 70 -101 137 -132 41 -19 67 -21 283 -24 l237 -4 0 1226 0
1226 -217 -1 c-145 0 -234 -5 -266 -13z"/>
<path d="M3760 2555 l0 -1227 238 4 c215 3 241 5 282 24 67 31 106 68 137 132
l28 57 0 1010 0 1010 -28 57 c-31 64 -70 101 -137 132 -41 19 -67 21 -282 24
l-238 4 0 -1227z"/>
<path d="M216 3190 c-61 -24 -120 -80 -143 -137 -15 -36 -23 -43 -45 -43 l-28
0 0 -425 0 -425 28 0 c23 0 30 -6 40 -33 31 -85 125 -151 233 -164 l49 -6 0
627 0 626 -42 0 c-24 -1 -65 -10 -92 -20z"/>
<path d="M4770 2584 l0 -627 49 6 c108 13 202 79 233 164 10 27 17 33 40 33
l28 0 0 425 0 425 -28 0 c-23 0 -30 6 -41 37 -32 87 -144 163 -241 163 l-40 0
0 -626z"/>
<path d="M1680 2555 l0 -405 880 0 880 0 0 405 0 405 -880 0 -880 0 0 -405z"/>
</g>
</svg>
