<?xml version="1.0" standalone="no"?>
<!DOCTYPE svg PUBLIC "-//W3C//DTD SVG 20010904//EN"
 "http://www.w3.org/TR/2001/REC-SVG-20010904/DTD/svg10.dtd">
<svg version="1.0" xmlns="http://www.w3.org/2000/svg"
 width="512.000000pt" height="512.000000pt" viewBox="0 0 512.000000 512.000000"
 preserveAspectRatio="xMidYMid meet">
<metadata>
Created by potrace 1.16, written by Peter Selinger 2001-2019
</metadata>
<g transform="translate(0.000000,512.000000) scale(0.100000,-0.100000)"
fill="#000000" stroke="none">
<path d="M2421 4989 c-331 -26 -621 -104 -906 -244 -608 -298 -1057 -816
-1271 -1462 -81 -244 -118 -475 -117 -728 1 -643 260 -1262 723 -1725 286
-286 612 -484 1000 -605 81 -26 272 -75 289 -75 8 0 11 249 11 835 l0 835
-280 0 -280 0 0 395 0 395 280 0 280 0 0 334 c0 253 4 355 15 422 69 403 324
659 724 729 156 28 550 18 843 -21 l48 -7 0 -353 0 -353 -287 -3 c-270 -3
-291 -5 -344 -26 -79 -32 -132 -81 -171 -160 l-33 -66 -3 -248 -3 -248 366 0
365 0 0 -49 c0 -40 -87 -634 -106 -718 l-4 -23 -240 0 -240 0 0 -834 0 -834
94 28 c294 86 611 251 856 447 282 225 542 545 695 857 82 169 128 294 175
480 60 237 75 358 74 601 0 225 -16 357 -69 565 -214 843 -879 1531 -1713
1770 -252 72 -549 107 -771 89z"/>
</g>
</svg>
