<?xml version="1.0" standalone="no"?>
<!DOCTYPE svg PUBLIC "-//W3C//DTD SVG 20010904//EN"
 "http://www.w3.org/TR/2001/REC-SVG-20010904/DTD/svg10.dtd">
<svg version="1.0" xmlns="http://www.w3.org/2000/svg"
 width="512.000000pt" height="512.000000pt" viewBox="0 0 512.000000 512.000000"
 preserveAspectRatio="xMidYMid meet">
<metadata>
Created by potrace 1.16, written by Peter Selinger 2001-2019
</metadata>
<g transform="translate(0.000000,512.000000) scale(0.100000,-0.100000)"
fill="#000000" stroke="none">
<path d="M1370 4777 c-14 -7 -33 -28 -42 -47 -16 -32 -18 -75 -18 -457 l0
-423 -592 0 c-574 0 -594 -1 -625 -20 -18 -11 -33 -24 -33 -30 0 -5 -13 -10
-30 -10 l-30 0 0 -285 0 -285 24 0 c14 0 38 -13 54 -30 29 -28 35 -30 106 -30
l76 0 0 -1372 c0 -1355 0 -1373 20 -1406 11 -18 32 -37 46 -42 35 -14 4433
-14 4468 0 14 5 35 24 46 42 19 32 20 51 20 701 0 589 -2 673 -16 702 -22 46
-44 52 -71 20 l-23 -26 0 -410 0 -409 -160 0 -160 0 0 695 c0 746 1 738 -49
765 -13 7 -386 10 -1126 10 l-1107 0 -29 -29 -29 -29 0 -706 0 -706 -190 0
-190 0 0 689 c0 465 -3 698 -11 719 -22 63 -13 62 -499 62 -284 0 -448 -4
-461 -10 -50 -27 -49 -19 -49 -765 l0 -695 -160 0 -160 0 0 1100 0 1100 2190
0 2190 0 0 -229 c0 -227 0 -230 23 -257 30 -34 52 -27 72 21 12 26 15 84 15
250 l0 215 76 0 c71 0 77 2 106 30 16 17 40 30 54 30 l24 0 0 285 0 285 -30 0
c-16 0 -30 5 -30 10 0 6 -15 19 -32 30 -32 19 -52 20 -625 20 l-593 0 0 423
c0 382 -2 425 -18 457 -9 19 -28 40 -42 47 -37 18 -2343 18 -2380 0z m2330
-802 l0 -705 -1140 0 -1140 0 0 705 0 705 1140 0 1140 0 0 -705z m-2390 -470
l0 -235 -580 0 -580 0 0 235 0 235 580 0 580 0 0 -235z m3660 0 l0 -235 -580
0 -580 0 0 235 0 235 580 0 580 0 0 -235z m-3370 -1865 l0 -680 -400 0 -400 0
0 680 0 680 400 0 400 0 0 -680z m2720 0 l0 -680 -1060 0 -1060 0 0 680 0 680
1060 0 1060 0 0 -680z m430 -995 l0 -205 -2190 0 -2190 0 0 205 0 205 2190 0
2190 0 0 -205z"/>
<path d="M1945 4326 c-89 -39 -145 -129 -145 -233 0 -61 -1 -63 -25 -63 -34 0
-81 -25 -89 -47 -10 -26 36 -63 80 -63 l34 0 0 -59 c0 -108 46 -188 135 -233
31 -16 65 -22 165 -25 226 -9 250 9 250 200 l0 117 210 0 210 0 0 -117 c0
-191 24 -209 250 -200 100 3 134 9 165 25 89 45 135 125 135 233 l0 59 34 0
c44 0 90 37 80 63 -8 22 -55 47 -89 47 -24 0 -25 2 -25 63 0 110 -69 212 -160
237 -19 6 -100 10 -180 10 -201 -1 -210 -9 -210 -194 l0 -116 -210 0 -210 0 0
116 c0 187 -8 194 -220 193 -106 0 -165 -4 -185 -13z m295 -356 l0 -260 -146
0 c-81 0 -154 5 -165 10 -18 10 -19 24 -19 254 0 133 3 246 7 249 3 4 78 7
165 7 l158 0 0 -260z m968 10 c2 -221 1 -246 -15 -257 -12 -9 -62 -13 -165
-13 l-148 0 0 260 0 260 163 -2 162 -3 3 -245z"/>
</g>
</svg>
