<?xml version="1.0" standalone="no"?>
<!DOCTYPE svg PUBLIC "-//W3C//DTD SVG 20010904//EN"
 "http://www.w3.org/TR/2001/REC-SVG-20010904/DTD/svg10.dtd">
<svg version="1.0" xmlns="http://www.w3.org/2000/svg"
 width="512.000000pt" height="512.000000pt" viewBox="0 0 512.000000 512.000000"
 preserveAspectRatio="xMidYMid meet">
<metadata>
Created by potrace 1.16, written by Peter Selinger 2001-2019
</metadata>
<g transform="translate(0.000000,512.000000) scale(0.100000,-0.100000)"
fill="#000000" stroke="none">
<path d="M1325 4713 c-244 -31 -507 -136 -696 -278 -104 -78 -256 -235 -327
-337 -68 -99 -143 -251 -181 -364 -31 -93 -61 -225 -61 -269 0 -21 -5 -25 -30
-25 l-30 0 0 -115 0 -115 30 0 c27 0 30 -3 30 -30 0 -66 73 -338 123 -457 l30
-73 423 0 423 0 115 193 c134 225 146 241 197 267 48 25 200 28 255 5 52 -22
75 -51 224 -283 74 -116 137 -211 140 -212 3 0 61 152 129 338 291 790 275
753 353 793 29 15 58 19 135 19 99 -1 115 -5 166 -46 39 -31 53 -64 225 -529
88 -236 170 -456 182 -487 l21 -57 347 -3 c371 -3 367 -3 425 -57 41 -38 57
-73 64 -144 11 -127 -30 -222 -113 -259 -41 -18 -69 -19 -526 -16 -467 3 -484
4 -518 24 -55 32 -80 81 -180 352 -51 139 -96 249 -100 245 -4 -4 -76 -195
-160 -423 -84 -228 -161 -431 -171 -451 -40 -81 -113 -113 -239 -107 -122 5
-137 17 -265 211 -60 91 -142 216 -181 277 l-71 110 -43 -72 c-23 -40 -57 -88
-74 -106 -57 -62 -59 -62 -488 -62 l-390 0 43 -52 c162 -197 397 -440 614
-634 361 -323 868 -714 1298 -999 l87 -58 118 78 c523 348 1086 796 1468 1168
387 376 649 717 776 1011 57 131 138 422 138 496 0 27 3 30 30 30 l30 0 0 115
0 115 -30 0 c-25 0 -30 4 -30 25 0 44 -30 176 -61 269 -38 113 -113 265 -181
364 -71 102 -223 259 -327 337 -283 213 -666 319 -976 271 -324 -51 -598 -189
-820 -413 l-81 -83 -53 0 -54 0 -87 88 c-219 220 -492 357 -806 406 -93 15
-215 19 -289 9z"/>
</g>
</svg>
