<?xml version="1.0" standalone="no"?>
<!DOCTYPE svg PUBLIC "-//W3C//DTD SVG 20010904//EN"
 "http://www.w3.org/TR/2001/REC-SVG-20010904/DTD/svg10.dtd">
<svg version="1.0" xmlns="http://www.w3.org/2000/svg"
 width="512.000000pt" height="512.000000pt" viewBox="0 0 512.000000 512.000000"
 preserveAspectRatio="xMidYMid meet">
<metadata>
Created by potrace 1.16, written by Peter Selinger 2001-2019
</metadata>
<g transform="translate(0.000000,512.000000) scale(0.100000,-0.100000)"
fill="#000000" stroke="none">
<path d="M1520 5091 c0 -16 -6 -31 -15 -35 -8 -3 -24 -20 -35 -38 -19 -31 -20
-51 -20 -290 l0 -258 -222 0 c-123 0 -423 -3 -668 -7 l-445 -6 -33 -34 c-20
-19 -44 -33 -58 -33 l-24 0 0 -305 0 -305 26 0 c15 0 38 -12 56 -30 27 -27 36
-30 94 -30 l64 0 0 -1569 0 -1569 -66 -4 c-60 -4 -70 -7 -95 -36 -18 -20 -38
-32 -54 -32 l-25 0 0 -200 0 -200 26 0 c34 0 84 -50 84 -84 l0 -26 2450 0
2450 0 0 26 c0 34 50 84 84 84 l26 0 0 200 0 200 -25 0 c-16 0 -36 12 -54 32
-25 29 -35 32 -95 36 l-66 4 0 1564 0 1564 28 0 c61 0 104 14 132 41 17 17 39
29 54 29 l26 0 0 305 0 305 -24 0 c-14 0 -38 14 -59 35 l-35 35 -666 0 -666 0
0 263 c0 244 -1 264 -20 295 -11 18 -27 35 -35 38 -9 4 -15 19 -15 35 l0 29
-1040 0 -1040 0 0 -29z m2010 -816 l0 -665 -970 0 -970 0 0 665 0 665 970 0
970 0 0 -665z m-2080 -178 l0 -234 -152 -6 c-83 -4 -369 -7 -635 -7 l-483 0 0
240 0 240 635 0 635 0 0 -233z m3490 -7 l0 -240 -635 0 -635 0 0 240 0 240
635 0 635 0 0 -240z m-3490 -446 c0 -92 18 -136 65 -158 27 -13 72 -16 239
-16 l206 0 0 -305 0 -305 -790 0 -790 0 0 430 0 430 535 0 535 0 0 -76z m3290
-359 l0 -425 -785 0 -785 0 0 305 0 305 201 0 c227 0 256 7 283 65 10 20 16
60 16 104 l0 71 535 0 535 0 0 -425z m-1710 -120 l0 -305 -470 0 -470 0 0 305
0 305 470 0 470 0 0 -305z m-1070 -1515 l0 -1070 -790 0 -790 0 0 1070 0 1070
790 0 790 0 0 -1070z m1070 0 l0 -1070 -470 0 -470 0 0 1070 0 1070 470 0 470
0 0 -1070z m1710 0 l0 -1070 -785 0 -785 0 0 1070 0 1070 785 0 785 0 0 -1070z
m200 -1340 l0 -130 -2380 0 -2380 0 0 130 0 130 2380 0 2380 0 0 -130z"/>
<path d="M2121 4554 c-12 -9 -28 -28 -36 -45 -11 -20 -23 -29 -39 -29 -32 0
-82 -50 -90 -91 -9 -48 -7 -200 4 -238 13 -46 46 -79 86 -87 23 -4 34 -13 38
-30 4 -13 17 -31 30 -40 53 -34 96 29 96 141 l0 65 350 0 350 0 0 -65 c0 -112
43 -175 96 -141 13 9 26 27 30 40 4 17 15 26 38 30 40 8 73 41 86 87 11 38 13
190 4 238 -8 40 -58 91 -89 91 -16 0 -29 11 -43 34 -31 52 -54 61 -85 31 -28
-29 -37 -63 -37 -146 l0 -59 -349 0 -348 0 -5 83 c-4 82 -16 115 -48 135 -13
8 -23 7 -39 -4z"/>
<path d="M1563 2208 c-12 -13 -175 -255 -362 -537 -311 -470 -340 -517 -328
-535 19 -28 42 -40 61 -33 17 7 705 1038 714 1070 5 21 -24 57 -48 57 -9 0
-26 -10 -37 -22z"/>
<path d="M1039 2120 c-8 -5 -93 -126 -189 -270 l-173 -260 23 -25 c29 -31 50
-32 77 -2 32 34 333 497 333 511 0 12 -41 56 -51 56 -2 0 -11 -5 -20 -10z"/>
<path d="M2369 1764 c-23 -25 -24 -30 -27 -214 -3 -202 3 -236 49 -261 17 -9
25 -7 45 12 35 33 44 78 44 229 0 165 -6 203 -36 235 -29 32 -44 31 -75 -1z"/>
<path d="M4177 2228 c-16 -8 -701 -1032 -714 -1066 -6 -15 34 -62 52 -62 6 0
21 10 32 23 21 21 670 994 692 1036 21 39 -25 90 -62 69z"/>
<path d="M4343 1778 c-27 -30 -343 -505 -343 -516 0 -5 12 -20 28 -35 26 -25
28 -25 49 -9 19 16 338 487 350 519 6 15 -33 63 -52 63 -6 0 -21 -10 -32 -22z"/>
</g>
</svg>
