<?xml version="1.0" standalone="no"?>
<!DOCTYPE svg PUBLIC "-//W3C//DTD SVG 20010904//EN"
 "http://www.w3.org/TR/2001/REC-SVG-20010904/DTD/svg10.dtd">
<svg version="1.0" xmlns="http://www.w3.org/2000/svg"
 width="512.000000pt" height="512.000000pt" viewBox="0 0 512.000000 512.000000"
 preserveAspectRatio="xMidYMid meet">
<metadata>
Created by potrace 1.16, written by Peter Selinger 2001-2019
</metadata>
<g transform="translate(0.000000,512.000000) scale(0.100000,-0.100000)"
fill="#000000" stroke="none">
<path d="M815 3930 c-37 -24 -64 -60 -65 -83 0 -31 28 -74 63 -96 l34 -21
1713 0 c1688 0 1713 0 1745 20 17 11 40 35 50 54 16 29 17 38 5 66 -7 17 -29
42 -49 56 l-36 24 -1715 0 c-1685 0 -1716 0 -1745 -20z"/>
<path d="M815 2650 c-37 -24 -64 -60 -65 -83 0 -31 28 -74 63 -96 l34 -21
1713 0 c1688 0 1713 0 1745 20 17 11 40 35 50 54 16 29 17 38 5 66 -7 17 -29
42 -49 56 l-36 24 -1715 0 c-1685 0 -1716 0 -1745 -20z"/>
<path d="M815 1370 c-37 -24 -64 -60 -65 -83 0 -31 28 -74 63 -96 l34 -21
1713 0 c1688 0 1713 0 1745 20 17 11 40 35 50 54 16 29 17 38 5 66 -7 17 -29
42 -49 56 l-36 24 -1715 0 c-1685 0 -1716 0 -1745 -20z"/>
</g>
</svg>
