<?xml version="1.0" standalone="no"?>
<!DOCTYPE svg PUBLIC "-//W3C//DTD SVG 20010904//EN"
 "http://www.w3.org/TR/2001/REC-SVG-20010904/DTD/svg10.dtd">
<svg version="1.0" xmlns="http://www.w3.org/2000/svg"
 width="512.000000pt" height="512.000000pt" viewBox="0 0 512.000000 512.000000"
 preserveAspectRatio="xMidYMid meet">
<metadata>
Created by potrace 1.16, written by Peter Selinger 2001-2019
</metadata>
<g transform="translate(0.000000,512.000000) scale(0.100000,-0.100000)"
fill="#000000" stroke="none">
<path d="M1315 4813 c-560 -70 -986 -443 -1174 -1025 -34 -105 -81 -327 -81
-382 0 -33 -2 -36 -30 -36 l-30 0 0 -160 0 -160 30 0 c27 0 30 -3 30 -34 0
-103 69 -398 136 -584 150 -412 371 -749 729 -1108 259 -259 482 -432 810
-630 263 -157 751 -386 825 -386 37 0 173 55 392 160 340 161 679 374 958 601
127 103 363 332 470 456 281 326 495 714 605 1100 31 108 75 341 75 396 0 37
2 39 30 39 l30 0 0 150 0 150 -30 0 c-27 0 -30 3 -30 33 0 18 -5 60 -10 93
-91 524 -354 931 -745 1152 -218 123 -492 184 -717 161 -216 -22 -416 -82
-643 -194 -82 -40 -190 -98 -239 -129 -81 -52 -93 -56 -147 -56 -55 0 -64 4
-156 64 -359 235 -794 366 -1088 329z m435 -158 c230 -51 481 -170 740 -349
l71 -49 87 60 c185 127 349 209 538 272 204 68 260 76 514 75 211 0 231 -2
323 -27 112 -30 256 -95 347 -157 256 -174 456 -494 529 -846 62 -300 51 -682
-30 -997 -65 -255 -221 -585 -392 -827 -379 -538 -981 -996 -1735 -1321 -100
-43 -122 -49 -183 -49 -60 0 -85 6 -180 46 -154 65 -442 208 -579 289 -616
360 -1079 821 -1346 1339 -180 350 -257 635 -271 1011 -17 487 103 890 355
1182 150 174 382 310 602 352 30 6 64 13 75 15 11 3 119 3 240 1 159 -2 241
-7 295 -20z"/>
<path d="M1650 3361 c-121 -37 -225 -155 -238 -268 -5 -48 -24 -63 -82 -63
-94 0 -219 -92 -266 -195 -48 -104 -44 -318 7 -418 51 -99 157 -170 274 -182
l65 -7 0 -49 c0 -134 106 -266 246 -307 64 -19 260 -16 293 4 53 31 56 44 59
262 l4 202 548 0 548 0 4 -202 c3 -218 6 -231 59 -262 33 -20 229 -23 293 -4
137 40 246 176 246 309 l0 47 65 7 c117 12 223 83 274 182 54 107 54 330 -1
437 -46 90 -172 176 -258 176 -55 0 -80 16 -80 52 0 46 -50 146 -96 192 -22
21 -64 51 -94 65 -50 24 -68 26 -196 29 l-141 3 -30 -30 c-40 -39 -43 -61 -43
-272 l0 -179 -550 0 -550 0 0 173 c0 211 -5 240 -42 278 l-30 29 -131 -1 c-73
0 -143 -4 -157 -8z m220 -747 l0 -626 -123 3 c-98 3 -129 8 -151 22 -56 37
-56 41 -56 595 0 280 3 523 6 541 7 36 46 78 77 84 12 2 73 5 135 6 l112 1 0
-626z m1656 607 c50 -33 49 -21 52 -588 3 -581 3 -582 -54 -620 -22 -14 -53
-19 -151 -22 l-123 -3 0 627 0 627 128 -4 c85 -2 134 -8 148 -17z m-2116 -586
l0 -265 -83 0 c-145 0 -157 20 -157 270 0 153 3 185 17 207 24 37 68 52 151
53 l72 0 0 -265z m2473 251 c62 -25 67 -44 67 -246 0 -250 -12 -270 -157 -270
l-83 0 0 265 0 265 70 0 c39 0 85 -6 103 -14z m-773 -271 l0 -135 -550 0 -550
0 0 135 0 135 550 0 550 0 0 -135z"/>
</g>
</svg>
