<?xml version="1.0" standalone="no"?>
<!DOCTYPE svg PUBLIC "-//W3C//DTD SVG 20010904//EN"
 "http://www.w3.org/TR/2001/REC-SVG-20010904/DTD/svg10.dtd">
<svg version="1.0" xmlns="http://www.w3.org/2000/svg"
 width="128.000000pt" height="128.000000pt" viewBox="0 0 128.000000 128.000000"
 preserveAspectRatio="xMidYMid meet">
<metadata>
Created by potrace 1.16, written by Peter Selinger 2001-2019
</metadata>
<g transform="translate(0.000000,128.000000) scale(0.100000,-0.100000)"
fill="#000000" stroke="none">
<path d="M387 1186 c-49 -18 -117 -75 -117 -98 0 -5 57 -8 128 -8 139 0 137
-1 162 66 9 23 7 26 -25 40 -42 17 -98 17 -148 0z"/>
<path d="M224 1026 c-3 -8 -4 -25 -2 -38 l3 -23 235 0 235 0 0 35 0 35 -233 3
c-195 2 -233 0 -238 -12z"/>
<path d="M280 842 c0 -61 5 -87 23 -122 66 -132 248 -132 315 0 17 35 22 61
22 122 l0 78 -180 0 -180 0 0 -78z"/>
<path d="M160 840 c-27 -27 -25 -56 6 -85 21 -20 24 -29 19 -58 -6 -28 -3 -39
15 -57 18 -18 29 -21 57 -15 29 5 38 2 58 -19 26 -28 45 -34 45 -13 0 6 -15
22 -34 34 -47 30 -86 112 -86 180 0 52 0 53 -30 53 -17 0 -39 -9 -50 -20z"/>
<path d="M680 808 c0 -30 -9 -71 -19 -93 -18 -41 -75 -105 -92 -105 -5 0 -9
-7 -9 -15 0 -22 18 -18 45 11 20 21 29 24 58 19 50 -10 82 22 72 72 -5 29 -2
38 19 58 14 13 26 33 26 45 0 29 -35 60 -70 60 -29 0 -30 -1 -30 -52z"/>
<path d="M400 547 c0 -34 -4 -40 -31 -50 -29 -11 -31 -15 -26 -51 4 -26 16
-50 36 -70 27 -26 39 -31 81 -31 42 0 54 5 81 31 20 20 32 44 36 70 5 36 3 40
-26 51 -27 10 -31 16 -31 50 l0 38 -60 0 -60 0 0 -38z"/>
<path d="M258 463 c-14 -4 -18 -15 -18 -59 0 -35 -7 -69 -20 -94 -25 -50 -25
-96 0 -138 l20 -32 199 0 200 0 3 58 3 57 37 5 37 5 -19 44 c-12 25 -20 65
-20 96 0 46 -3 53 -22 59 -35 9 -35 9 -42 -36 -9 -53 -66 -113 -119 -123 -90
-17 -180 40 -193 123 -6 41 -11 44 -46 35z"/>
<path d="M151 422 c-60 -32 -71 -68 -71 -224 l0 -138 60 0 c59 0 60 0 60 29 0
16 -9 48 -20 72 -11 24 -20 60 -20 79 0 19 9 55 20 79 20 42 27 121 12 121 -4
0 -23 -8 -41 -18z"/>
<path d="M760 180 l0 -100 40 0 40 0 0 100 0 100 -40 0 -40 0 0 -100z"/>
<path d="M1040 180 l0 -100 40 0 40 0 0 100 0 100 -40 0 -40 0 0 -100z"/>
<path d="M240 80 c0 -19 7 -20 240 -20 233 0 240 1 240 20 0 19 -7 20 -240 20
-233 0 -240 -1 -240 -20z"/>
</g>
</svg>
