<?xml version="1.0" standalone="no"?>
<!DOCTYPE svg PUBLIC "-//W3C//DTD SVG 20010904//EN"
 "http://www.w3.org/TR/2001/REC-SVG-20010904/DTD/svg10.dtd">
<svg version="1.0" xmlns="http://www.w3.org/2000/svg"
 width="512.000000pt" height="512.000000pt" viewBox="0 0 512.000000 512.000000"
 preserveAspectRatio="xMidYMid meet">
<metadata>
Created by potrace 1.16, written by Peter Selinger 2001-2019
</metadata>
<g transform="translate(0.000000,512.000000) scale(0.100000,-0.100000)"
fill="#000000" stroke="none">
<path d="M2315 4999 c-754 -91 -1432 -523 -1835 -1169 -284 -456 -419 -1040
-355 -1537 73 -556 319 -1058 715 -1453 323 -324 728 -554 1162 -660 223 -55
313 -65 563 -65 194 1 250 4 358 24 269 47 501 125 732 245 248 128 431 261
625 456 204 203 335 385 471 655 171 339 259 702 259 1065 0 628 -267 1258
-730 1720 -209 210 -412 354 -685 486 -223 109 -413 169 -672 215 -136 24
-474 34 -608 18z m1186 -901 c377 -103 583 -346 638 -751 15 -106 15 -1468 0
-1574 -55 -405 -261 -647 -638 -751 l-96 -27 -845 0 -845 0 -96 27 c-375 103
-588 352 -639 748 -12 98 -12 1482 0 1580 56 427 302 688 724 766 55 10 253
12 886 11 l815 -2 96 -27z"/>
<path d="M1955 3750 c-275 -18 -445 -116 -539 -312 -71 -149 -71 -156 -71
-888 1 -646 1 -656 23 -735 32 -116 76 -197 144 -271 66 -70 156 -121 263
-149 104 -28 384 -37 925 -32 583 5 625 10 766 77 146 70 248 209 291 395 16
73 18 134 18 725 0 591 -2 652 -18 725 -43 186 -145 325 -291 395 -144 69
-177 72 -816 75 -311 2 -623 -1 -695 -5z m1546 -196 c19 -11 44 -36 57 -55 22
-31 23 -43 20 -141 -3 -103 -4 -108 -33 -139 -42 -44 -83 -59 -167 -59 -88 0
-144 23 -179 71 -20 29 -25 48 -27 125 -3 76 -1 98 17 131 35 70 89 94 202 89
54 -2 86 -8 110 -22z m-731 -154 c297 -61 544 -295 622 -589 28 -110 35 -308
14 -430 -56 -319 -275 -562 -592 -653 -70 -20 -100 -23 -254 -22 -145 0 -188
4 -251 22 -300 82 -528 325 -590 627 -27 127 -22 337 9 456 69 260 282 486
536 569 132 43 353 52 506 20z"/>
<path d="M2505 3030 c-208 -42 -376 -213 -415 -422 -25 -132 66 -319 205 -423
98 -74 225 -112 313 -95 213 40 382 209 422 422 22 112 -43 273 -152 379 -105
102 -264 161 -373 139z"/>
</g>
</svg>
