<?xml version="1.0" standalone="no"?>
<!DOCTYPE svg PUBLIC "-//W3C//DTD SVG 20010904//EN"
 "http://www.w3.org/TR/2001/REC-SVG-20010904/DTD/svg10.dtd">
<svg version="1.0" xmlns="http://www.w3.org/2000/svg"
 width="512.000000pt" height="512.000000pt" viewBox="0 0 512.000000 512.000000"
 preserveAspectRatio="xMidYMid meet">
<metadata>
Created by potrace 1.16, written by Peter Selinger 2001-2019
</metadata>
<g transform="translate(0.000000,512.000000) scale(0.100000,-0.100000)"
fill="#000000" stroke="none">
<path d="M2420 5092 c0 -28 -1 -28 -87 -41 -593 -85 -1113 -463 -1387 -1009
-139 -276 -213 -634 -185 -890 35 -330 150 -673 368 -1106 235 -465 535 -925
942 -1446 216 -276 406 -499 446 -525 23 -14 32 -28 33 -47 0 -16 5 -28 10
-28 6 0 10 12 10 28 1 19 10 33 33 47 63 40 484 560 722 890 535 746 894 1453
999 1968 58 286 53 495 -20 763 -87 324 -244 594 -479 829 -288 289 -646 470
-1037 526 -87 13 -88 13 -88 41 l0 28 -140 0 -140 0 0 -28z m445 -886 c308
-93 544 -328 634 -632 47 -160 52 -403 11 -574 -27 -112 -105 -269 -180 -364
-114 -143 -306 -269 -485 -317 -120 -32 -385 -38 -515 -11 -355 73 -636 344
-720 695 -26 109 -35 287 -21 407 51 414 332 723 742 815 47 11 115 14 254 11
173 -3 198 -5 280 -30z"/>
</g>
</svg>
