<?xml version="1.0" standalone="no"?>
<!DOCTYPE svg PUBLIC "-//W3C//DTD SVG 20010904//EN"
 "http://www.w3.org/TR/2001/REC-SVG-20010904/DTD/svg10.dtd">
<svg version="1.0" xmlns="http://www.w3.org/2000/svg"
 width="512.000000pt" height="512.000000pt" viewBox="0 0 512.000000 512.000000"
 preserveAspectRatio="xMidYMid meet">
<metadata>
Created by potrace 1.16, written by Peter Selinger 2001-2019
</metadata>
<g transform="translate(0.000000,512.000000) scale(0.100000,-0.100000)"
fill="#000000" stroke="none">
<path d="M242 4481 c-100 -37 -188 -100 -178 -127 3 -7 121 -154 264 -326 142
-172 442 -554 666 -848 225 -294 432 -559 460 -588 57 -61 278 -253 404 -352
81 -64 82 -66 82 -110 0 -33 -133 -686 -185 -907 l-5 -23 -521 0 -520 0 -77
-26 c-42 -14 -82 -30 -89 -36 -7 -6 -44 -16 -83 -24 -104 -19 -192 -66 -265
-138 -63 -63 -119 -158 -131 -222 -5 -29 -10 -34 -35 -34 -24 0 -29 -4 -29
-25 0 -21 5 -25 29 -25 17 0 31 -6 35 -15 18 -47 -82 -45 2496 -45 2096 0
2425 2 2455 15 48 20 55 42 21 72 -27 23 -31 23 -252 23 l-224 0 0 93 c0 68
-5 103 -19 133 -29 63 -80 115 -146 146 l-60 28 -312 0 -313 0 1 118 c1 64 4
157 8 206 l6 89 55 14 c95 24 158 59 225 126 58 58 157 196 186 260 11 24 18
27 57 27 25 0 73 -11 106 -24 131 -52 228 -48 356 16 96 49 254 209 303 306
20 40 39 89 43 108 5 29 10 34 35 34 28 0 29 1 29 55 0 54 -1 55 -28 55 -25 0
-29 5 -41 49 -7 27 -28 75 -47 107 -34 57 -35 59 -32 158 2 91 0 106 -23 156
-58 122 -176 205 -289 205 -146 -1 -286 -140 -314 -311 -6 -34 -23 -56 -110
-145 -63 -63 -114 -124 -130 -156 l-26 -53 -53 0 c-28 0 -88 7 -132 17 -57 11
-132 16 -260 17 -163 0 -202 -4 -410 -38 -126 -21 -267 -40 -311 -43 l-82 -5
-33 63 c-47 89 -173 214 -265 262 -84 43 -175 67 -262 67 l-63 0 -87 71 c-47
39 -92 73 -99 76 -18 7 -43 -15 -43 -37 0 -20 229 -207 263 -214 12 -3 65 -7
117 -9 84 -3 103 -7 163 -37 45 -22 86 -52 121 -90 70 -77 96 -133 96 -212 0
-54 -11 -90 -92 -295 l-91 -233 -52 0 c-49 0 -59 5 -166 82 -275 196 -743 577
-840 684 -15 16 -198 253 -408 528 l-381 498 0 53 0 53 91 76 c90 75 91 76
149 76 l57 0 77 -90 c42 -49 121 -135 176 -192 85 -89 101 -102 117 -92 35 22
25 43 -62 137 -120 127 -315 353 -315 364 0 6 -23 42 -50 81 -56 79 -124 139
-211 182 -31 16 -86 51 -122 79 -121 91 -265 123 -375 82z m279 -113 c30 -13
73 -43 97 -66 24 -23 60 -46 81 -52 49 -13 126 -64 156 -105 19 -24 25 -44 25
-82 l0 -50 -106 -87 c-103 -85 -106 -87 -153 -84 l-49 3 -176 214 -177 214 3
56 c4 68 12 72 149 67 76 -2 106 -8 150 -28z m4278 -1311 c55 -36 71 -78 71
-182 0 -47 -4 -95 -10 -105 -7 -14 -3 -26 22 -56 63 -79 78 -127 78 -254 0
-161 0 -160 -68 -160 -55 0 -56 1 -123 65 -92 89 -156 118 -274 123 l-90 4
-52 51 c-50 49 -53 54 -53 103 0 48 3 55 40 88 22 20 44 36 49 36 4 0 20 12
35 26 22 23 26 35 26 88 0 44 6 74 23 106 39 78 93 102 215 95 58 -3 82 -9
111 -28z m-458 -603 l67 -67 104 -1 c123 -1 145 -11 236 -99 62 -61 62 -62 62
-118 0 -55 -2 -59 -39 -88 -79 -63 -123 -76 -256 -76 -109 0 -125 2 -175 26
-68 32 -122 84 -157 152 -26 48 -28 61 -28 177 0 69 3 133 7 143 6 13 19 17
60 17 51 0 54 -1 119 -66z m-454 -15 c43 -5 94 -14 114 -19 35 -10 35 -10 47
-87 9 -53 25 -104 52 -158 57 -116 56 -156 -10 -265 -67 -111 -127 -187 -174
-222 -34 -24 -48 -28 -107 -28 l-67 0 -4 128 c-3 110 -7 134 -28 177 -50 103
-169 185 -269 185 -52 0 -151 -51 -196 -102 -67 -73 -88 -135 -93 -275 l-5
-123 -46 0 c-62 0 -226 41 -350 87 l-101 37 0 60 c0 51 12 91 91 291 l91 232
147 23 c421 66 442 68 638 69 105 1 227 -4 270 -10z m-332 -409 c65 -31 75
-59 75 -198 0 -105 -20 -507 -34 -690 -5 -58 -3 -65 24 -95 l28 -32 364 -3
c200 -1 373 -4 386 -7 39 -9 62 -61 62 -142 0 -66 -3 -76 -29 -105 l-29 -33
-449 0 c-418 0 -451 1 -498 19 -65 25 -137 94 -166 159 l-24 52 0 500 0 500
22 31 c33 46 77 64 157 64 49 0 82 -6 111 -20z m-1311 -89 c66 -48 147 -105
179 -126 l57 -38 0 -59 c0 -46 -24 -142 -101 -411 -56 -194 -111 -372 -122
-397 -30 -64 -106 -134 -174 -162 -58 -23 -60 -23 -590 -26 l-533 -3 0 186 0
185 400 0 c438 0 446 1 468 57 10 24 192 856 192 876 0 4 23 7 51 7 48 0 57
-5 173 -89z m538 -306 c96 -34 202 -63 310 -85 l56 -11 4 -257 c4 -230 7 -264
26 -322 12 -36 33 -82 47 -102 19 -27 25 -50 25 -87 l0 -51 -480 0 -480 0 0
49 c0 38 8 61 35 107 40 66 47 88 166 502 l83 292 56 0 c37 0 86 -11 152 -35z
m-1954 -541 c22 -6 22 -8 22 -190 l0 -184 -335 0 -335 0 0 63 c0 56 4 67 38
112 47 62 142 115 206 115 30 0 63 11 110 35 82 44 224 67 294 49z"/>
</g>
</svg>
