<svg id="Calque_1" data-name="Calque 1" xmlns="http://www.w3.org/2000/svg" viewBox="0 0 512 439.5"><defs><style>.cls-1{fill:#fff;}</style></defs><path class="cls-1" d="M11.4,38A14.4,14.4,0,0,0,7,42.5,4.17,4.17,0,0,1,2.8,45C1.3,45,0,45.4,0,46s1.3,1,2.8,1A4.17,4.17,0,0,1,7,49.5,14.16,14.16,0,0,0,11.6,54c3,1.9,5.1,2,36.7,2H81.9l2,6.7c1.1,3.8,17.3,60.5,36,126C147.8,286.1,154,309.1,154,314s-.7,7.3-3.5,13.1a79.87,79.87,0,0,0-5.1,12.9c-1.4,5.4-1.4,6.6.1,12.1a46.3,46.3,0,0,0,19.7,27.5c8.5,5.4,14.1,6.4,35.8,6.4h20v5.5c0,4.4-.3,5.5-1.6,5.5-.9,0-4.6,1.4-8.3,3.2a48,48,0,0,0-21.2,21.3c-2.9,6.1-3.4,8-3.4,14.5s.5,8.4,3.4,14.5a48,48,0,0,0,21.6,21.6c6.1,2.9,8,3.4,14.5,3.4s8.4-.5,14.5-3.4a48,48,0,0,0,21.6-21.6c2.9-6.1,3.4-8,3.4-14.5s-.5-8.4-3.4-14.5a48,48,0,0,0-21.2-21.3c-3.7-1.8-7.4-3.2-8.3-3.2-1.3,0-1.6-1.1-1.6-5.5V386H372v5.5c0,4.4-.3,5.5-1.6,5.5-.9,0-4.6,1.4-8.3,3.2a48,48,0,0,0-21.2,21.3c-2.9,6.1-3.4,8-3.4,14.5s.5,8.4,3.4,14.5a48,48,0,0,0,21.6,21.6c6.1,2.9,8,3.4,14.5,3.4s8.4-.5,14.5-3.4a48,48,0,0,0,21.6-21.6c2.9-6.1,3.4-8,3.4-14.5s-.5-8.4-3.4-14.5a48,48,0,0,0-21.2-21.3c-3.7-1.8-7.4-3.2-8.3-3.2-1.3,0-1.6-1.1-1.6-5.5V386h27.6c25.6,0,27.9-.1,30.8-1.9a17.93,17.93,0,0,0,4.9-5c1.7-3,1.7-3.2,0-6.2a17.93,17.93,0,0,0-4.9-5c-3.1-1.9-6.4-1.9-131-1.9-84.6,0-129.4-.4-132.4-1.1-8.5-1.9-12-7.5-12-19.1,0-6,.5-8.4,3-13.5l2.9-6.3H304.1c129.8,0,133.2,0,136.3-1.9a16.49,16.49,0,0,0,4.7-4.8c.9-1.5,15-49.9,31.5-107.6L506.4,107h2.8c1.5,0,2.8-.5,2.8-1s-1.3-1-2.8-1a4.17,4.17,0,0,1-4.2-2.5,14.16,14.16,0,0,0-4.6-4.5c-3.1-2-6-2-195.2-2H113.1l-2-6.8c-1.1-3.7-4.5-15.5-7.5-26.2C98.3,44.6,97.7,43.3,94,39.7L90.1,36H52.3C16.4,36,14.3,36.1,11.4,38Z" transform="translate(0 -36)"/></svg>