<?xml version="1.0" standalone="no"?>
<!DOCTYPE svg PUBLIC "-//W3C//DTD SVG 20010904//EN"
 "http://www.w3.org/TR/2001/REC-SVG-20010904/DTD/svg10.dtd">
<svg version="1.0" xmlns="http://www.w3.org/2000/svg"
 width="512.000000pt" height="512.000000pt" viewBox="0 0 512.000000 512.000000"
 preserveAspectRatio="xMidYMid meet">
<metadata>
Created by potrace 1.16, written by Peter Selinger 2001-2019
</metadata>
<g transform="translate(0.000000,512.000000) scale(0.100000,-0.100000)"
fill="#000000" stroke="none">
<path d="M1640 5092 c0 -23 -6 -30 -34 -40 -46 -17 -122 -100 -135 -148 -6
-22 -11 -60 -11 -86 l0 -48 -167 0 c-181 0 -236 -9 -328 -55 -109 -53 -197
-142 -251 -256 -56 -116 -54 -15 -54 -2065 0 -2087 -5 -1925 62 -2059 44 -86
147 -186 239 -230 40 -19 88 -38 106 -41 28 -5 33 -10 33 -35 l0 -29 1455 0
1455 0 0 28 c0 26 4 30 52 41 125 29 264 141 330 267 72 137 68 -9 68 2090 0
2087 5 1925 -62 2059 -40 78 -145 183 -223 223 -107 54 -152 62 -337 62 l-168
0 0 38 c0 99 -62 204 -140 238 -33 15 -40 23 -40 46 l0 28 -925 0 -925 0 0
-28z m1820 -422 l0 -200 -895 0 -895 0 0 200 0 200 895 0 895 0 0 -200z
m-2000 -147 c0 -74 18 -121 63 -171 81 -88 3 -82 1031 -82 687 0 919 3 950 12
60 18 131 92 150 159 9 29 16 70 16 92 l0 39 198 -4 c215 -5 241 -11 306 -68
18 -17 44 -52 56 -78 l23 -47 -2 -1955 c-2 -1418 -5 -1966 -13 -1994 -17 -55
-89 -131 -146 -153 -45 -17 -120 -18 -1542 -18 l-1495 0 -47 24 c-54 26 -101
75 -124 129 -15 34 -16 206 -15 1992 1 1363 5 1966 13 1990 11 36 50 95 78
118 61 50 112 60 328 61 l172 1 0 -47z"/>
<path d="M2045 3651 c-16 -10 -106 -96 -200 -190 l-170 -171 -49 0 c-46 0 -53
4 -107 55 -32 30 -65 55 -74 55 -27 0 -71 -30 -89 -61 -15 -25 -15 -31 -2 -56
16 -31 220 -235 251 -251 14 -7 26 -7 45 3 14 8 136 125 273 262 175 177 247
255 247 271 0 31 -27 70 -61 88 -34 17 -28 18 -64 -5z"/>
<path d="M2560 3334 c-28 -26 -40 -44 -40 -64 0 -20 12 -38 40 -64 l40 -36
539 0 538 0 34 23 c18 12 40 35 49 50 13 24 13 30 0 54 -9 15 -31 38 -49 50
l-34 23 -538 0 -539 0 -40 -36z"/>
<path d="M1870 2405 l-186 -185 -55 0 c-51 0 -58 3 -94 41 -22 22 -53 47 -68
55 -26 14 -31 13 -60 -3 -17 -10 -40 -33 -50 -50 -24 -42 -17 -54 92 -167 98
-101 155 -146 185 -146 21 0 492 459 527 514 16 26 16 32 4 57 -19 35 -62 69
-88 69 -14 0 -86 -65 -207 -185z"/>
<path d="M2560 2334 c-28 -26 -40 -44 -40 -64 0 -20 12 -38 40 -64 l40 -36
539 0 538 0 34 23 c18 12 40 35 49 50 13 24 13 30 0 54 -9 15 -31 38 -49 50
l-34 23 -538 0 -539 0 -40 -36z"/>
<path d="M1870 1405 l-186 -185 -55 0 c-51 0 -58 3 -94 41 -22 22 -53 47 -68
55 -26 14 -31 13 -60 -3 -17 -10 -40 -33 -50 -50 -24 -42 -17 -54 92 -167 98
-101 155 -146 185 -146 21 0 492 459 527 514 16 26 16 32 4 57 -19 35 -62 69
-88 69 -14 0 -86 -65 -207 -185z"/>
<path d="M2560 1334 c-28 -26 -40 -44 -40 -64 0 -20 12 -38 40 -64 l40 -36
541 0 c518 0 543 1 573 19 17 11 39 33 49 50 17 30 17 32 0 62 -10 17 -32 39
-49 50 -30 18 -55 19 -573 19 l-541 0 -40 -36z"/>
</g>
</svg>
