<?xml version="1.0" standalone="no"?>
<!DOCTYPE svg PUBLIC "-//W3C//DTD SVG 20010904//EN"
 "http://www.w3.org/TR/2001/REC-SVG-20010904/DTD/svg10.dtd">
<svg version="1.0" xmlns="http://www.w3.org/2000/svg"
 width="512.000000pt" height="512.000000pt" viewBox="0 0 512.000000 512.000000"
 preserveAspectRatio="xMidYMid meet">
<metadata>
Created by potrace 1.16, written by Peter Selinger 2001-2019
</metadata>
<g transform="translate(0.000000,512.000000) scale(0.100000,-0.100000)"
fill="#000000" stroke="none">
<path d="M2380 5091 c0 -28 -1 -28 -77 -35 -112 -10 -302 -50 -439 -92 -398
-120 -739 -322 -1043 -619 -334 -325 -563 -714 -686 -1160 -36 -132 -75 -343
-75 -406 0 -37 -2 -39 -30 -39 l-30 0 0 -180 0 -180 29 0 c28 0 28 0 35 -77
16 -183 88 -460 172 -668 193 -471 543 -893 979 -1178 320 -209 742 -361 1088
-393 76 -7 77 -7 77 -35 l0 -29 180 0 180 0 0 29 c0 28 0 28 78 35 182 16 459
88 667 172 623 254 1145 776 1399 1399 84 208 156 485 172 668 7 77 7 77 35
77 l29 0 0 180 0 180 -29 0 c-28 0 -28 0 -35 78 -16 182 -88 459 -172 667
-191 468 -539 888 -969 1171 -327 215 -751 369 -1097 400 -78 7 -78 7 -78 35
l0 29 -180 0 -180 0 0 -29z m944 -1361 c88 -22 176 -66 235 -117 l40 -34 76
26 c42 14 103 39 135 55 45 23 73 30 115 30 l55 0 0 -49 c0 -50 -21 -110 -61
-170 -22 -33 -22 -34 -1 -22 11 6 46 11 76 11 l56 0 0 -52 c0 -44 -5 -58 -40
-103 -39 -51 -151 -162 -202 -201 -26 -20 -27 -26 -33 -145 -31 -568 -307
-1068 -748 -1359 -278 -183 -590 -270 -971 -270 -297 0 -541 56 -793 181
l-123 61 0 54 0 54 114 0 c129 0 255 19 365 56 85 28 241 101 241 112 0 4 -26
15 -58 24 -176 52 -362 259 -362 404 l0 54 33 0 32 1 -30 21 c-62 44 -143 140
-179 211 -47 95 -66 173 -66 274 l0 83 51 0 c28 0 49 3 47 8 -1 4 -18 37 -36
75 -47 96 -66 206 -59 342 6 115 15 158 49 238 l20 47 52 0 52 0 120 -117 c65
-65 159 -146 207 -180 180 -127 416 -228 634 -272 155 -32 143 -38 143 77 0
53 7 126 15 161 50 209 234 390 445 435 99 22 262 20 354 -4z"/>
</g>
</svg>
