<?xml version="1.0" standalone="no"?>
<!DOCTYPE svg PUBLIC "-//W3C//DTD SVG 20010904//EN"
 "http://www.w3.org/TR/2001/REC-SVG-20010904/DTD/svg10.dtd">
<svg version="1.0" xmlns="http://www.w3.org/2000/svg"
 width="512.000000pt" height="512.000000pt" viewBox="0 0 512.000000 512.000000"
 preserveAspectRatio="xMidYMid meet">
<metadata>
Created by potrace 1.16, written by Peter Selinger 2001-2019
</metadata>
<g transform="translate(0.000000,512.000000) scale(0.100000,-0.100000)"
fill="#000000" stroke="none">
<path d="M805 4837 c-121 -40 -220 -147 -254 -274 -37 -135 103 -323 271 -367
62 -16 117 -8 186 28 121 63 219 235 192 338 -51 188 -246 324 -395 275z"/>
<path d="M3440 4836 c-146 -48 -260 -190 -260 -324 0 -53 34 -133 80 -192 69
-87 206 -148 290 -129 148 33 285 190 283 326 -1 130 -121 276 -262 319 -54
16 -83 16 -131 0z"/>
<path d="M2109 4476 c-56 -22 -110 -59 -154 -107 -125 -136 -120 -300 14 -434
134 -134 310 -134 444 0 74 74 101 134 101 225 0 62 -4 84 -26 126 -77 147
-257 237 -379 190z"/>
<path d="M662 3630 c-228 -61 -401 -238 -447 -456 -11 -52 -15 -147 -15 -381
l0 -313 534 0 534 0 4 228 c4 224 4 228 35 315 34 97 79 178 136 242 20 24 37
49 37 57 0 7 -23 43 -50 79 -80 107 -170 172 -297 215 -69 24 -97 27 -238 31
-136 3 -171 0 -233 -17z"/>
<path d="M3375 3644 c-11 -2 -45 -9 -75 -15 -101 -20 -197 -76 -285 -164 -45
-44 -89 -96 -100 -116 l-18 -37 39 -45 c90 -104 159 -264 170 -399 l7 -75 60
25 c246 99 618 120 915 51 45 -10 85 -19 89 -19 3 0 3 71 0 158 -4 125 -9 170
-27 222 -33 99 -77 168 -154 246 -82 82 -180 136 -291 159 -64 13 -278 19
-330 9z"/>
<path d="M1995 3278 c-27 -5 -88 -27 -135 -50 -104 -50 -217 -158 -268 -255
-65 -123 -72 -178 -72 -535 l0 -318 445 0 445 0 21 43 c71 139 217 315 355
428 73 59 74 61 74 107 -1 262 -204 516 -462 577 -71 17 -321 19 -403 3z"/>
<path d="M3540 2634 c-496 -90 -889 -477 -990 -973 -109 -538 250 -1129 803
-1321 171 -59 342 -81 478 -60 587 87 1014 533 1074 1121 14 132 -29 345 -104
517 -212 489 -769 806 -1261 716z m-123 -626 c22 -20 23 -29 23 -150 l0 -128
275 0 275 0 0 109 c0 116 11 166 40 181 25 13 315 13 363 -1 67 -18 131 -90
146 -163 6 -26 14 -31 67 -46 78 -21 127 -59 159 -123 24 -48 25 -59 25 -211
0 -134 -3 -168 -19 -201 -32 -72 -114 -135 -174 -135 -45 0 -57 -10 -57 -47 0
-70 -58 -149 -135 -184 -33 -16 -66 -19 -200 -18 -177 0 -189 3 -205 60 -6 19
-10 85 -10 146 l0 113 -275 0 -275 0 0 -135 c0 -131 -1 -137 -25 -160 -23 -24
-28 -25 -177 -25 -174 0 -207 7 -262 52 -42 34 -86 116 -86 160 0 22 -6 29
-27 33 -108 22 -162 59 -194 130 -25 55 -28 355 -3 413 30 72 97 123 182 137
33 5 42 11 42 26 0 33 48 116 79 138 63 45 89 50 260 51 156 0 166 -1 188 -22z"/>
<path d="M3159 1753 c-11 -13 -14 -73 -14 -293 0 -220 3 -280 14 -293 7 -10
17 -17 22 -17 5 0 9 139 9 310 0 171 -4 310 -9 310 -5 0 -15 -7 -22 -17z"/>
<path d="M4250 1458 c0 -310 0 -311 20 -293 19 17 20 31 20 292 0 263 -5 313
-30 313 -6 0 -10 -118 -10 -312z"/>
</g>
</svg>
