<?xml version="1.0" standalone="no"?>
<!DOCTYPE svg PUBLIC "-//W3C//DTD SVG 20010904//EN"
 "http://www.w3.org/TR/2001/REC-SVG-20010904/DTD/svg10.dtd">
<svg version="1.0" xmlns="http://www.w3.org/2000/svg"
 width="512.000000pt" height="512.000000pt" viewBox="0 0 512.000000 512.000000"
 preserveAspectRatio="xMidYMid meet">
<metadata>
Created by potrace 1.16, written by Peter Selinger 2001-2019
</metadata>
<g transform="translate(0.000000,512.000000) scale(0.100000,-0.100000)"
fill="#000000" stroke="none">
<path d="M1266 3949 c-112 -39 -206 -124 -247 -225 l-23 -54 -55 0 c-200 -1
-348 -76 -435 -219 -51 -84 -66 -152 -66 -308 l0 -133 -45 0 c-150 0 -271 -73
-321 -193 -16 -40 -23 -47 -46 -47 l-28 0 0 -210 0 -210 28 0 c23 0 30 -7 45
-45 46 -110 151 -180 291 -191 l76 -7 0 -131 c0 -154 15 -223 66 -307 87 -143
235 -218 435 -219 l55 0 23 -54 c42 -103 136 -187 251 -226 75 -25 118 -22
200 16 73 34 131 83 172 146 71 107 71 111 76 530 l4 378 698 2 c562 2 702 6
712 16 11 11 10 16 -6 28 -17 12 -127 14 -713 14 l-693 0 0 260 0 260 839 0
840 0 3 -667 c3 -623 5 -671 22 -718 43 -114 121 -201 226 -249 82 -38 125
-41 200 -16 115 39 209 123 251 226 l23 54 55 0 c200 1 348 76 435 219 51 84
66 153 66 307 l0 131 76 7 c140 11 245 81 291 191 15 38 22 45 46 45 l27 0 0
210 0 210 -27 0 c-24 0 -31 7 -47 47 -50 120 -171 193 -321 193 l-45 0 0 133
c0 156 -15 224 -66 308 -87 143 -235 218 -435 219 l-55 0 -23 54 c-42 103
-136 187 -251 226 -75 25 -118 22 -200 -16 -107 -49 -183 -133 -225 -249 -17
-44 -19 -92 -23 -427 l-4 -378 -838 0 -838 0 -4 378 c-4 335 -6 383 -23 427
-42 116 -119 201 -227 250 -78 36 -131 40 -202 14z m239 -63 c61 -29 97 -65
127 -131 l23 -50 0 -1145 0 -1145 -23 -50 c-30 -66 -66 -102 -127 -131 -43
-20 -65 -24 -155 -24 -90 0 -112 4 -155 24 -59 28 -107 76 -132 131 -17 37
-18 98 -23 845 -3 443 -9 811 -13 818 -5 6 -12 12 -16 12 -28 0 -31 -65 -31
-792 l0 -740 -127 4 c-105 3 -137 8 -178 27 -68 30 -112 74 -146 146 l-29 60
0 815 0 815 29 60 c34 72 78 116 146 146 41 19 73 24 178 27 l127 4 0 -105 c0
-97 12 -157 30 -157 22 0 28 40 32 195 4 188 13 223 71 284 18 18 55 44 82 57
43 20 65 24 155 24 90 0 112 -4 155 -24z m2420 0 c59 -27 117 -88 136 -142 21
-58 21 -2310 0 -2368 -19 -54 -77 -115 -136 -142 -42 -20 -66 -24 -155 -24
-90 0 -112 4 -155 24 -61 29 -97 65 -127 131 l-23 50 0 1145 0 1145 23 50 c30
66 66 102 127 131 43 20 65 24 155 24 89 0 113 -4 155 -24z m520 -305 c68 -30
112 -74 146 -146 l29 -60 0 -815 0 -815 -29 -60 c-34 -72 -78 -116 -146 -146
-41 -19 -73 -24 -177 -27 l-128 -4 0 1052 0 1052 128 -4 c104 -3 136 -8 177
-27z m-4005 -1022 l0 -391 -107 3 c-121 5 -161 20 -200 78 -30 44 -35 103 -31
356 3 243 8 261 70 308 42 32 54 34 171 36 l97 1 0 -391z m4503 358 c68 -52
71 -66 75 -312 4 -253 -1 -312 -31 -356 -39 -58 -79 -73 -199 -78 l-108 -3 0
392 0 392 113 -3 c106 -4 116 -6 150 -32z"/>
</g>
</svg>
