<?xml version="1.0" standalone="no"?>
<!DOCTYPE svg PUBLIC "-//W3C//DTD SVG 20010904//EN"
 "http://www.w3.org/TR/2001/REC-SVG-20010904/DTD/svg10.dtd">
<svg version="1.0" xmlns="http://www.w3.org/2000/svg"
 width="512.000000pt" height="512.000000pt" viewBox="0 0 512.000000 512.000000"
 preserveAspectRatio="xMidYMid meet">
<metadata>
Created by potrace 1.16, written by Peter Selinger 2001-2019
</metadata>
<g transform="translate(0.000000,512.000000) scale(0.100000,-0.100000)"
fill="#000000" stroke="none">
<path d="M3880 5092 c0 -25 -6 -31 -37 -40 -49 -15 -118 -71 -104 -85 6 -6 21
-2 44 12 28 17 50 21 121 21 146 0 176 -30 176 -177 0 -65 -4 -95 -16 -113 -9
-14 -166 -175 -348 -357 -223 -225 -327 -336 -320 -343 7 -7 125 106 366 348
336 337 357 360 373 412 21 67 11 115 -35 178 -33 46 -101 99 -137 108 -17 5
-23 13 -23 35 0 26 -4 29 -30 29 -26 0 -30 -4 -30 -28z"/>
<path d="M3498 5043 c-9 -11 -18 -47 -21 -94 -9 -102 -47 -221 -98 -300 -24
-38 -122 -145 -237 -261 l-196 -198 -53 0 -53 0 0 121 c0 139 -16 214 -63 303
-90 169 -321 297 -479 266 -32 -6 -74 -18 -93 -25 -19 -8 -60 -15 -91 -15 -54
0 -59 2 -89 38 -35 40 -105 80 -157 88 -47 8 -152 -48 -193 -102 -36 -47 -109
-244 -108 -290 2 -65 75 -160 153 -199 19 -10 60 -21 90 -24 l55 -6 7 -55 c13
-104 70 -236 139 -324 34 -42 39 -56 39 -99 0 -111 -126 -408 -258 -607 -95
-143 -185 -253 -394 -481 -262 -287 -302 -343 -338 -470 -12 -41 -28 -99 -37
-129 -32 -113 1 -286 79 -418 76 -128 185 -203 373 -256 140 -39 203 -46 450
-46 211 0 444 -10 588 -26 l57 -6 0 -49 c0 -88 -100 -920 -121 -1012 -18 -74
-19 -96 -10 -127 6 -21 11 -58 11 -84 l0 -46 -1178 0 c-1032 0 -1181 -2 -1198
-15 -18 -14 -18 -16 -2 -29 10 -7 18 -25 18 -40 l0 -26 2470 0 2470 0 0 26 c0
15 8 33 18 40 16 13 16 15 -2 29 -17 13 -129 15 -863 15 -795 0 -844 1 -850
17 -30 90 -92 167 -165 204 -24 12 -90 34 -148 49 l-105 26 -3 41 c-2 24 45
273 113 604 88 426 115 575 111 607 -15 111 -119 248 -232 305 -104 52 -386
135 -606 178 l-218 42 0 56 1 56 176 115 c192 125 302 220 409 354 72 90 134
203 158 287 18 60 11 118 -20 181 -8 15 -14 55 -14 90 l0 63 85 85 c57 56 81
88 75 94 -7 7 -76 -55 -210 -189 -131 -131 -196 -203 -190 -209 7 -7 25 4 53
32 40 39 46 42 99 42 67 0 68 -2 68 -135 0 -109 -20 -163 -100 -280 -119 -172
-228 -263 -578 -482 -138 -86 -172 -103 -206 -103 -23 -1 -197 18 -388 42
l-348 43 0 57 c0 53 3 61 53 126 28 38 122 146 209 238 198 214 308 347 410
499 89 131 203 355 244 477 l26 78 50 0 c34 0 63 -7 91 -24 23 -13 63 -32 90
-41 l47 -18 0 -51 c0 -50 -2 -53 -65 -116 -59 -58 -79 -90 -57 -90 4 0 267
260 583 578 l576 577 51 105 c72 146 103 293 71 325 -14 14 -17 14 -31 -2z
m-728 -785 l0 -243 -127 -127 -128 -128 -65 0 c-77 1 -171 30 -253 80 -57 34
-57 35 -57 82 0 58 39 161 118 311 53 100 59 107 92 113 101 17 217 68 280
123 29 25 44 30 88 31 l52 0 0 -242z m160 -3355 c0 -27 -21 -151 -47 -276 -41
-203 -45 -229 -31 -243 10 -11 299 -94 325 -94 1 0 18 -14 38 -31 33 -29 35
-35 35 -91 l0 -59 -334 3 c-320 3 -336 4 -363 24 -67 49 -79 137 -39 289 13
50 34 183 46 295 12 113 23 211 26 218 2 9 46 12 174 12 l170 0 0 -47z"/>
</g>
</svg>
