<?xml version="1.0" standalone="no"?>
<!DOCTYPE svg PUBLIC "-//W3C//DTD SVG 20010904//EN"
 "http://www.w3.org/TR/2001/REC-SVG-20010904/DTD/svg10.dtd">
<svg version="1.0" xmlns="http://www.w3.org/2000/svg"
 width="512.000000pt" height="512.000000pt" viewBox="0 0 512.000000 512.000000"
 preserveAspectRatio="xMidYMid meet">
<metadata>
Created by potrace 1.16, written by Peter Selinger 2001-2019
</metadata>
<g transform="translate(0.000000,512.000000) scale(0.100000,-0.100000)"
fill="#000000" stroke="none">
<path d="M2530 5092 c0 -25 -6 -31 -38 -40 -92 -28 -167 -101 -208 -201 -19
-47 -22 -68 -18 -131 l6 -75 -64 -34 c-41 -22 -96 -67 -159 -131 -86 -86 -103
-108 -147 -201 -56 -115 -82 -215 -82 -312 0 -86 21 -107 108 -107 l62 0 0
-73 c0 -316 201 -571 498 -632 64 -14 80 -14 145 0 296 61 497 316 497 632 l0
73 68 0 c92 0 105 14 103 106 -2 102 -28 199 -83 313 -44 93 -61 115 -147 201
-63 64 -118 109 -159 131 l-64 34 6 75 c4 63 1 84 -18 131 -41 100 -116 173
-208 201 -32 9 -38 15 -38 40 0 24 -4 28 -30 28 -26 0 -30 -4 -30 -28z m172
-123 c58 -38 81 -89 86 -188 l5 -84 -89 8 c-49 4 -114 8 -144 8 -30 0 -95 -4
-144 -8 l-89 -8 5 84 c5 97 30 154 81 185 51 30 67 33 162 31 76 -3 96 -7 127
-28z m63 -345 c100 -26 192 -80 276 -164 124 -124 176 -241 186 -417 l6 -103
-57 0 c-88 0 -153 36 -261 145 l-90 90 -91 -46 c-193 -98 -495 -176 -723 -186
l-124 -6 6 104 c10 179 61 295 186 419 143 143 292 195 526 184 55 -3 127 -12
160 -20z m144 -589 c29 -30 73 -67 97 -82 l44 -28 0 -165 c0 -112 -5 -180 -14
-211 -48 -157 -158 -267 -315 -315 -61 -18 -261 -18 -322 0 -157 48 -267 158
-315 315 -9 30 -14 95 -14 188 l0 141 73 12 c168 27 402 99 542 165 49 23 85
34 120 34 49 1 53 -1 104 -54z"/>
<path d="M1953 3029 c-135 -22 -276 -101 -381 -214 -81 -87 -135 -185 -162
-292 -11 -43 -42 -251 -70 -463 l-51 -385 -252 -252 -252 -253 -51 0 c-42 0
-55 5 -75 26 -34 37 -97 67 -140 67 -53 0 -142 -45 -193 -97 -127 -131 -123
-283 11 -406 53 -49 140 -90 188 -90 23 0 25 -3 25 -54 0 -35 -8 -72 -24 -107
-14 -30 -28 -71 -31 -91 -11 -60 35 -175 99 -247 32 -36 134 -100 172 -107 29
-5 34 -10 34 -35 l0 -29 1760 0 1760 0 0 29 c0 25 5 30 34 35 38 7 140 71 172
107 36 40 70 101 89 158 15 46 16 62 6 105 -6 28 -23 71 -36 95 -17 30 -25 58
-25 92 0 48 1 49 30 49 50 0 137 39 187 85 62 55 103 130 110 199 13 121 -95
259 -236 302 -40 12 -52 12 -92 -1 -25 -9 -64 -31 -87 -50 -34 -30 -48 -35
-89 -35 l-48 0 -252 253 -252 252 -51 380 c-27 209 -57 413 -66 453 -55 255
-293 480 -551 521 -44 7 -66 6 -93 -5 -86 -36 -102 -74 -109 -274 -6 -138 -9
-161 -32 -210 -69 -148 -222 -222 -423 -206 -144 12 -259 87 -315 206 -23 49
-26 72 -32 210 -8 189 -22 231 -89 265 -40 20 -62 23 -117 14z m127 -184 c0
-140 11 -199 58 -294 67 -137 211 -251 359 -282 170 -35 394 95 485 282 47 95
58 154 58 294 l0 115 84 0 c47 0 107 -5 135 -12 l51 -11 0 -69 c0 -38 -34
-356 -76 -706 -41 -350 -75 -671 -75 -712 0 -59 14 -131 65 -338 41 -163 66
-283 66 -317 l0 -55 -730 0 -730 0 0 55 c0 34 25 154 66 317 51 207 65 279 65
338 0 41 -34 362 -75 712 -42 350 -76 668 -76 706 l0 69 43 10 c23 6 84 11
135 12 l92 1 0 -115z m-337 -42 c3 -16 17 -137 33 -270 l28 -241 -72 -359
c-58 -288 -78 -371 -104 -423 -27 -57 -75 -109 -381 -418 l-351 -352 -223 0
c-276 0 -307 9 -355 104 -17 32 -19 54 -16 136 3 83 6 102 28 133 41 60 83 77
188 77 107 0 127 -11 145 -84 25 -96 15 -103 362 244 173 173 319 326 324 340
6 14 33 196 61 405 27 209 55 407 61 440 15 80 68 190 119 248 40 45 44 47 95
47 49 0 53 -2 58 -27z m1787 -20 c51 -58 104 -168 119 -248 6 -33 34 -231 61
-440 28 -209 55 -391 61 -405 5 -14 151 -167 324 -340 347 -347 337 -340 362
-244 18 73 37 84 150 84 108 0 137 -11 180 -67 26 -33 28 -45 31 -138 3 -87 1
-108 -16 -141 -48 -95 -79 -104 -355 -104 l-223 0 -351 353 c-306 308 -354
360 -381 417 -26 52 -46 135 -104 423 l-72 359 28 241 c38 330 28 297 91 297
51 0 55 -2 95 -47z m-1652 -1120 c7 -60 12 -160 12 -223 0 -109 -3 -130 -72
-407 l-72 -293 -348 0 -348 0 0 52 0 52 283 285 c156 158 298 307 315 333 50
74 73 133 106 281 6 25 10 27 60 27 l53 0 11 -107z m1488 80 c33 -148 56 -207
106 -281 17 -26 159 -175 315 -333 l283 -285 0 -52 0 -52 -348 0 -348 0 -72
293 c-69 277 -72 298 -72 407 0 63 5 163 12 223 l11 107 53 0 c50 0 54 -2 60
-27z m-1906 -1118 c0 -85 53 -179 126 -221 37 -22 284 -83 642 -159 32 -7 32
-7 32 -66 l0 -59 -752 0 c-603 1 -760 4 -791 14 -57 21 -103 61 -128 113 -20
41 -24 63 -24 148 0 110 16 154 72 207 59 56 67 57 461 58 l362 0 0 -35z m800
-135 l0 -170 -52 0 c-29 0 -179 28 -333 62 -341 76 -335 72 -335 197 l0 81
360 0 360 0 0 -170z m2158 154 c47 -19 88 -58 115 -109 18 -33 22 -57 22 -140
0 -85 -4 -107 -24 -148 -25 -52 -71 -92 -128 -113 -31 -11 -232 -13 -1055 -14
l-1018 0 0 270 0 270 1025 0 c905 0 1030 -2 1063 -16z"/>
</g>
</svg>
