<?xml version="1.0" standalone="no"?>
<!DOCTYPE svg PUBLIC "-//W3C//DTD SVG 20010904//EN"
 "http://www.w3.org/TR/2001/REC-SVG-20010904/DTD/svg10.dtd">
<svg version="1.0" xmlns="http://www.w3.org/2000/svg"
 width="139.000000pt" height="27.000000pt" viewBox="0 0 139.000000 27.000000"
 preserveAspectRatio="xMidYMid meet">

<g transform="translate(0.000000,27.000000) scale(0.100000,-0.100000)"
fill="#000000" stroke="none">
<path d="M1085 215 c-24 -23 -35 -63 -15 -50 6 3 10 13 10 20 0 8 11 21 23 30
19 12 30 13 55 4 22 -7 36 -7 51 0 39 22 99 -32 76 -68 -8 -14 -72 -14 -80 -1
-10 17 -22 11 -29 -12 -6 -21 -7 -21 -17 -5 -7 12 -23 17 -56 17 -29 0 -50 5
-57 15 -10 13 -15 13 -43 -5 -42 -25 -43 -54 -2 -76 35 -18 49 -9 49 34 0 19
5 22 38 22 42 0 56 -7 65 -32 9 -25 24 -22 30 5 5 19 12 22 59 22 52 0 53 1
56 32 5 54 -50 89 -100 62 -14 -8 -23 -8 -31 0 -19 19 -57 12 -82 -14z m-48
-107 c-2 -13 -4 -5 -4 17 -1 22 1 32 4 23 2 -10 2 -28 0 -40z m-20 5 c-3 -10
-5 -4 -5 12 0 17 2 24 5 18 2 -7 2 -21 0 -30z"/>
<path d="M10 145 c0 -69 3 -85 15 -85 10 0 15 11 15 35 0 33 2 35 35 35 33 0
35 -2 35 -35 0 -24 5 -35 15 -35 12 0 15 16 15 85 0 69 -3 85 -15 85 -10 0
-15 -11 -15 -35 0 -33 -2 -35 -35 -35 -33 0 -35 2 -35 35 0 24 -5 35 -15 35
-12 0 -15 -16 -15 -85z"/>
<path d="M170 145 l0 -85 50 0 c38 0 50 4 50 15 0 10 -11 15 -35 15 -28 0 -35
4 -35 20 0 16 7 20 30 20 20 0 30 5 30 15 0 10 -10 15 -30 15 -23 0 -30 4 -30
20 0 16 7 20 35 20 24 0 35 5 35 15 0 11 -12 15 -50 15 l-50 0 0 -85z"/>
<path d="M335 218 c-3 -7 -16 -46 -29 -85 -23 -69 -24 -73 -6 -73 10 0 20 7
24 15 7 19 55 19 62 0 4 -8 14 -15 24 -15 17 0 17 6 -9 83 -18 54 -34 83 -44
85 -10 2 -19 -2 -22 -10z m35 -85 c0 -7 -7 -13 -15 -13 -16 0 -19 9 -9 35 5
13 8 14 15 3 5 -7 9 -19 9 -25z"/>
<path d="M440 145 l0 -85 55 0 c42 0 55 3 55 15 0 10 -11 15 -35 15 l-35 0 0
70 c0 63 -2 70 -20 70 -18 0 -20 -7 -20 -85z"/>
<path d="M520 215 c0 -9 9 -15 25 -15 24 0 25 -2 25 -70 0 -56 3 -70 15 -70
12 0 15 14 15 70 0 68 1 70 25 70 16 0 25 6 25 15 0 12 -14 15 -65 15 -51 0
-65 -3 -65 -15z"/>
<path d="M660 145 c0 -78 2 -85 20 -85 16 0 20 7 20 35 0 33 2 35 35 35 33 0
35 -2 35 -35 0 -24 5 -35 15 -35 12 0 15 16 15 85 0 67 -3 85 -14 85 -9 0 -16
-12 -18 -32 -3 -29 -7 -33 -35 -36 -32 -3 -33 -2 -33 32 0 29 -4 36 -20 36
-18 0 -20 -7 -20 -85z"/>
<path d="M820 222 c0 -4 11 -24 25 -44 17 -24 25 -51 25 -77 0 -30 4 -41 15
-41 11 0 15 12 15 46 0 28 7 56 18 72 33 48 34 52 13 52 -12 0 -26 -11 -34
-26 l-14 -26 -16 26 c-16 24 -47 36 -47 18z"/>
<path d="M1320 150 c0 -24 -4 -30 -21 -30 -11 0 -40 -16 -63 -35 -24 -19 -48
-35 -55 -35 -6 0 -32 19 -56 41 -25 23 -45 37 -45 31 0 -11 88 -92 101 -92 4
0 30 18 59 41 47 37 80 45 80 19 0 -14 32 -12 53 4 24 19 21 51 -8 70 -35 23
-45 20 -45 -14z m17 -37 c-3 -10 -5 -2 -5 17 0 19 2 27 5 18 2 -10 2 -26 0
-35z m20 0 c-3 -10 -5 -4 -5 12 0 17 2 24 5 18 2 -7 2 -21 0 -30z m20 5 c-3
-8 -6 -5 -6 6 -1 11 2 17 5 13 3 -3 4 -12 1 -19z"/>
</g>
</svg>
